HIERARCHY
ROOT newVegas:Hips
{
	OFFSET 0.000000 96.479958 0.000000
	CHANNELS 6 Xposition Yposition Zposition Xrotation Yrotation Zrotation
	JOINT newVegas:Pelvis
	{
		OFFSET 0.000000 0.000000 0.000000
		CHANNELS 3 Xrotation Yrotation Zrotation
		JOINT newVegas:LeftUpLeg
		{
			OFFSET 18.735201 -5.666702 -4.541200
			CHANNELS 3 Xrotation Yrotation Zrotation
			JOINT newVegas:LeftLeg
			{
				OFFSET -0.021200 -31.938179 0.493100
				CHANNELS 3 Xrotation Yrotation Zrotation
				JOINT newVegas:LeftFoot
				{
					OFFSET 0.021200 -31.938179 -4.336299
					CHANNELS 3 Xrotation Yrotation Zrotation
					JOINT newVegas:LeftToeBase
					{
						OFFSET 0.943001 -26.722000 15.023500
						CHANNELS 3 Xrotation Yrotation Zrotation
						End Site
						{
							OFFSET 0.000000 30.670183 0.000000
						}
					}
				}
				JOINT newVegas:Left_PantLeg
				{
					OFFSET 0.663870 -9.044666 -1.108900
					CHANNELS 3 Xrotation Yrotation Zrotation
					End Site
					{
						OFFSET 1.415995 20.635357 0.000000
					}
				}
			}
		}
		JOINT newVegas:RightUpLeg
		{
			OFFSET -18.735201 -5.666702 -4.541200
			CHANNELS 3 Xrotation Yrotation Zrotation
			JOINT newVegas:RightLeg
			{
				OFFSET 0.018946 -31.938133 0.493100
				CHANNELS 3 Xrotation Yrotation Zrotation
				JOINT newVegas:RightFoot
				{
					OFFSET -0.018946 -31.938126 -4.336299
					CHANNELS 3 Xrotation Yrotation Zrotation
					JOINT newVegas:RightToeBase
					{
						OFFSET -0.943001 -26.722004 15.023500
						CHANNELS 3 Xrotation Yrotation Zrotation
						End Site
						{
							OFFSET 0.000000 30.670187 0.000000
						}
					}
				}
				JOINT newVegas:Right_PantLeg
				{
					OFFSET -0.661674 -9.044716 -1.108900
					CHANNELS 3 Xrotation Yrotation Zrotation
					End Site
					{
						OFFSET -1.415958 20.635269 0.000000
					}
				}
			}
		}
	}
	JOINT newVegas:Spine
	{
		OFFSET 0.000000 10.199997 -0.299500
		CHANNELS 3 Xrotation Yrotation Zrotation
		JOINT newVegas:Spine1
		{
			OFFSET 0.000000 11.900002 -1.516600
			CHANNELS 3 Xrotation Yrotation Zrotation
			JOINT newVegas:Spine2
			{
				OFFSET 0.000000 13.600006 -2.842500
				CHANNELS 3 Xrotation Yrotation Zrotation
				JOINT newVegas:Neck
				{
					OFFSET 0.000000 9.624100 -2.890100
					CHANNELS 3 Xrotation Yrotation Zrotation
					JOINT newVegas:Head
					{
						OFFSET 0.000000 14.068802 -1.351900
						CHANNELS 3 Xrotation Yrotation Zrotation
						JOINT newVegas:Hair_Back
						{
							OFFSET 0.000000 3.231903 -17.524799
							CHANNELS 3 Xrotation Yrotation Zrotation
							End Site
							{
								OFFSET 0.000000 19.849884 0.000000
							}
						}
						JOINT newVegas:Hair_Front
						{
							OFFSET 0.000000 31.260406 4.573800
							CHANNELS 3 Xrotation Yrotation Zrotation
							JOINT newVegas:Hair_Front1
							{
								OFFSET 0.000000 2.284103 11.993300
								CHANNELS 3 Xrotation Yrotation Zrotation
								JOINT newVegas:Hair_Front2
								{
									OFFSET 0.000000 2.284103 11.993300
									CHANNELS 3 Xrotation Yrotation Zrotation
									End Site
									{
										OFFSET 0.000000 12.208862 0.000000
									}
								}
							}
						}
						JOINT newVegas:Jowel
						{
							OFFSET 0.000000 -7.458206 6.864100
							CHANNELS 3 Xrotation Yrotation Zrotation
							End Site
							{
								OFFSET 0.000000 19.849884 0.000000
							}
						}
					}
				}
				JOINT newVegas:LeftShoulder
				{
					OFFSET 15.263000 10.923401 -0.547700
					CHANNELS 3 Xrotation Yrotation Zrotation
					JOINT newVegas:LeftArm
					{
						OFFSET 25.438599 -2.830597 -13.032500
						CHANNELS 3 Xrotation Yrotation Zrotation
						JOINT newVegas:LeftForeArm
						{
							OFFSET 29.960503 0.000000 0.000000
							CHANNELS 3 Xrotation Yrotation Zrotation
							JOINT newVegas:LeftHand
							{
								OFFSET 27.849251 0.000000 0.000000
								CHANNELS 3 Xrotation Yrotation Zrotation
								JOINT newVegas:LeftHandThumb1
								{
									OFFSET 4.487587 -3.305161 6.305391
									CHANNELS 3 Xrotation Yrotation Zrotation
									JOINT newVegas:LeftHandThumb2
									{
										OFFSET 5.480453 -3.164139 3.164143
										CHANNELS 3 Xrotation Yrotation Zrotation
										JOINT newVegas:LeftHandThumb3
										{
											OFFSET 5.159721 -2.978973 2.978967
											CHANNELS 3 Xrotation Yrotation Zrotation
											End Site
											{
												OFFSET 2.494507 5.926697 1.738678
											}
										}
									}
								}
								JOINT newVegas:LeftHandIndex1
								{
									OFFSET 18.578728 -0.527832 5.208049
									CHANNELS 3 Xrotation Yrotation Zrotation
									JOINT newVegas:LeftHandIndex2
									{
										OFFSET 3.192009 0.000000 0.000000
										CHANNELS 3 Xrotation Yrotation Zrotation
										JOINT newVegas:LeftHandIndex3
										{
											OFFSET 3.835129 0.000000 0.000000
											CHANNELS 3 Xrotation Yrotation Zrotation
											End Site
											{
												OFFSET -0.034599 3.816971 0.371180
											}
										}
									}
								}
								JOINT newVegas:LeftHandMiddle1
								{
									OFFSET 18.476105 0.000000 0.000000
									CHANNELS 3 Xrotation Yrotation Zrotation
									JOINT newVegas:LeftHandMiddle2
									{
										OFFSET 3.324875 0.000000 0.000000
										CHANNELS 3 Xrotation Yrotation Zrotation
										JOINT newVegas:LeftHandMiddle3
										{
											OFFSET 4.596550 0.000000 0.000000
											CHANNELS 3 Xrotation Yrotation Zrotation
											End Site
											{
												OFFSET 0.057701 4.578827 0.399218
											}
										}
									}
								}
								JOINT newVegas:LeftHandRing1
								{
									OFFSET 17.732719 0.121887 -4.201567
									CHANNELS 3 Xrotation Yrotation Zrotation
									JOINT newVegas:LeftHandRing2
									{
										OFFSET 2.733170 0.000000 0.000000
										CHANNELS 3 Xrotation Yrotation Zrotation
										JOINT newVegas:LeftHandRing3
										{
											OFFSET 3.178268 0.000000 0.000000
											CHANNELS 3 Xrotation Yrotation Zrotation
											End Site
											{
												OFFSET 0.119102 3.170624 0.185394
											}
										}
									}
								}
								JOINT newVegas:LeftHandPinky1
								{
									OFFSET 15.989624 -0.606689 -7.535461
									CHANNELS 3 Xrotation Yrotation Zrotation
									JOINT newVegas:LeftHandPinky2
									{
										OFFSET 2.538986 0.000000 0.000000
										CHANNELS 3 Xrotation Yrotation Zrotation
										JOINT newVegas:LeftHandPinky3
										{
											OFFSET 2.593102 0.000000 0.000000
											CHANNELS 3 Xrotation Yrotation Zrotation
											End Site
											{
												OFFSET -0.150902 2.584198 0.152708
											}
										}
									}
								}
							}
							JOINT newVegas:Left_Sleeve
							{
								OFFSET 0.267448 -0.649796 0.577675
								CHANNELS 3 Xrotation Yrotation Zrotation
								End Site
								{
									OFFSET 0.000000 15.991241 0.000000
								}
							}
							JOINT newVegas:Left_CapeC
							{
								OFFSET 15.715958 -8.608795 -6.935905
								CHANNELS 3 Xrotation Yrotation Zrotation
								JOINT newVegas:Left_CapeC1
								{
									OFFSET 0.000000 -8.688499 0.000000
									CHANNELS 3 Xrotation Yrotation Zrotation
									End Site
									{
										OFFSET 0.000000 8.688499 0.000000
									}
								}
							}
						}
						JOINT newVegas:Left_CapeB
						{
							OFFSET 26.118385 -8.608795 -7.079235
							CHANNELS 3 Xrotation Yrotation Zrotation
							JOINT newVegas:Left_CapeB1
							{
								OFFSET 0.000000 -8.688499 0.000000
								CHANNELS 3 Xrotation Yrotation Zrotation
								End Site
								{
									OFFSET 0.000000 8.688499 0.000000
								}
							}
						}
						JOINT newVegas:Left_CapeA
						{
							OFFSET 5.115639 -8.608795 -10.395809
							CHANNELS 3 Xrotation Yrotation Zrotation
							JOINT newVegas:Left_CapeA1
							{
								OFFSET 0.000000 -8.688499 0.000000
								CHANNELS 3 Xrotation Yrotation Zrotation
								End Site
								{
									OFFSET 0.000000 8.688499 0.000000
								}
							}
						}
					}
				}
				JOINT newVegas:RightShoulder
				{
					OFFSET -15.263000 10.923401 -0.547700
					CHANNELS 3 Xrotation Yrotation Zrotation
					JOINT newVegas:RightArm
					{
						OFFSET -25.438599 -2.830597 -13.032500
						CHANNELS 3 Xrotation Yrotation Zrotation
						JOINT newVegas:RightForeArm
						{
							OFFSET -29.960503 0.000000 0.000000
							CHANNELS 3 Xrotation Yrotation Zrotation
							JOINT newVegas:RightHand
							{
								OFFSET -27.849251 0.000000 0.000000
								CHANNELS 3 Xrotation Yrotation Zrotation
								JOINT newVegas:RightHandThumb1
								{
									OFFSET -4.487587 -3.305161 6.305391
									CHANNELS 3 Xrotation Yrotation Zrotation
									JOINT newVegas:RightHandThumb2
									{
										OFFSET -5.480453 -3.164139 3.164143
										CHANNELS 3 Xrotation Yrotation Zrotation
										JOINT newVegas:RightHandThumb3
										{
											OFFSET -5.159721 -2.978973 2.978967
											CHANNELS 3 Xrotation Yrotation Zrotation
											End Site
											{
												OFFSET -2.494507 5.926697 1.738678
											}
										}
									}
								}
								JOINT newVegas:RightHandIndex1
								{
									OFFSET -18.578728 -0.527832 5.208049
									CHANNELS 3 Xrotation Yrotation Zrotation
									JOINT newVegas:RightHandIndex2
									{
										OFFSET -3.192009 0.000000 0.000000
										CHANNELS 3 Xrotation Yrotation Zrotation
										JOINT newVegas:RightHandIndex3
										{
											OFFSET -3.835129 0.000000 0.000000
											CHANNELS 3 Xrotation Yrotation Zrotation
											End Site
											{
												OFFSET 0.034599 3.816971 0.371180
											}
										}
									}
								}
								JOINT newVegas:RightHandMiddle1
								{
									OFFSET -18.476105 0.000000 0.000000
									CHANNELS 3 Xrotation Yrotation Zrotation
									JOINT newVegas:RightHandMiddle2
									{
										OFFSET -3.324875 0.000000 0.000000
										CHANNELS 3 Xrotation Yrotation Zrotation
										JOINT newVegas:RightHandMiddle3
										{
											OFFSET -4.596550 0.000000 0.000000
											CHANNELS 3 Xrotation Yrotation Zrotation
											End Site
											{
												OFFSET -0.057701 4.578827 0.399218
											}
										}
									}
								}
								JOINT newVegas:RightHandRing1
								{
									OFFSET -17.732719 0.121887 -4.201567
									CHANNELS 3 Xrotation Yrotation Zrotation
									JOINT newVegas:RightHandRing2
									{
										OFFSET -2.733170 0.000000 0.000000
										CHANNELS 3 Xrotation Yrotation Zrotation
										JOINT newVegas:RightHandRing3
										{
											OFFSET -3.178268 0.000000 0.000000
											CHANNELS 3 Xrotation Yrotation Zrotation
											End Site
											{
												OFFSET -0.119102 3.170624 0.185394
											}
										}
									}
								}
								JOINT newVegas:RightHandPinky1
								{
									OFFSET -15.989624 -0.606689 -7.535461
									CHANNELS 3 Xrotation Yrotation Zrotation
									JOINT newVegas:RightHandPinky2
									{
										OFFSET -2.538986 0.000000 0.000000
										CHANNELS 3 Xrotation Yrotation Zrotation
										JOINT newVegas:RightHandPinky3
										{
											OFFSET -2.593102 0.000000 0.000000
											CHANNELS 3 Xrotation Yrotation Zrotation
											End Site
											{
												OFFSET 0.150902 2.584198 0.152708
											}
										}
									}
								}
							}
							JOINT newVegas:Right_CapeC
							{
								OFFSET -15.715958 -8.608795 -6.935905
								CHANNELS 3 Xrotation Yrotation Zrotation
								JOINT newVegas:Right_CapeC1
								{
									OFFSET 0.000000 -8.688499 0.000000
									CHANNELS 3 Xrotation Yrotation Zrotation
									End Site
									{
										OFFSET 0.000000 8.688499 0.000000
									}
								}
							}
							JOINT newVegas:Right_Sleeve
							{
								OFFSET -0.267448 -0.649994 0.577675
								CHANNELS 3 Xrotation Yrotation Zrotation
								End Site
								{
									OFFSET 0.000000 15.991302 0.000000
								}
							}
						}
						JOINT newVegas:Right_CapeA
						{
							OFFSET -5.115540 -8.608795 -10.395824
							CHANNELS 3 Xrotation Yrotation Zrotation
							JOINT newVegas:Right_CapeA1
							{
								OFFSET 0.000000 -8.688499 0.000000
								CHANNELS 3 Xrotation Yrotation Zrotation
								End Site
								{
									OFFSET 0.000000 8.688499 0.000000
								}
							}
						}
						JOINT newVegas:Right_CapeB
						{
							OFFSET -26.118187 -8.608795 -7.079266
							CHANNELS 3 Xrotation Yrotation Zrotation
							JOINT newVegas:Right_CapeB1
							{
								OFFSET 0.000000 -8.688499 0.000000
								CHANNELS 3 Xrotation Yrotation Zrotation
								End Site
								{
									OFFSET 0.000000 8.688499 0.000000
								}
							}
						}
					}
				}
				JOINT newVegas:Left_Collar
				{
					OFFSET 18.625099 8.655502 8.828100
					CHANNELS 3 Xrotation Yrotation Zrotation
					JOINT newVegas:Left_Collar1
					{
						OFFSET 14.783401 10.540405 -1.259500
						CHANNELS 3 Xrotation Yrotation Zrotation
						End Site
						{
							OFFSET 0.000000 18.199875 0.000000
						}
					}
				}
				JOINT newVegas:Collar_Back
				{
					OFFSET 0.000000 15.630707 -20.132601
					CHANNELS 3 Xrotation Yrotation Zrotation
					End Site
					{
						OFFSET 0.000000 22.523010 0.000000
					}
				}
				JOINT newVegas:Left_Peck
				{
					OFFSET 17.239599 -5.132599 25.482599
					CHANNELS 3 Xrotation Yrotation Zrotation
					End Site
					{
						OFFSET 0.000000 22.523010 0.000000
					}
				}
				JOINT newVegas:Right_Peck
				{
					OFFSET -17.239599 -5.132202 25.482599
					CHANNELS 3 Xrotation Yrotation Zrotation
					End Site
					{
						OFFSET 0.000000 22.523010 0.000000
					}
				}
				JOINT newVegas:Right_Collar
				{
					OFFSET -18.625099 8.655792 8.828100
					CHANNELS 3 Xrotation Yrotation Zrotation
					JOINT newVegas:Right_Collar1
					{
						OFFSET -14.783401 10.539993 -1.259500
						CHANNELS 3 Xrotation Yrotation Zrotation
						End Site
						{
							OFFSET 0.000000 18.199631 0.000000
						}
					}
				}
			}
		}
		JOINT newVegas:Belly
		{
			OFFSET 0.000000 -6.540398 9.014299
			CHANNELS 3 Xrotation Yrotation Zrotation
			End Site
			{
				OFFSET 0.000000 11.566666 0.000000
			}
		}
	}
	JOINT newVegas:ElvisFacialAnim_Joint
	{
		OFFSET 1.000000 -95.330101 -8.825800
		CHANNELS 3 Xrotation Yrotation Zrotation
		End Site
		{
			OFFSET 0.000000 35.315800 0.000000
		}
	}
}
MOTION
Frames: 4
Frame Time: 0.033333
4.578671 84.420853 103.227737 6.197851 -0.259293 2.153593 -0.000000 -0.000000 -0.000000 -11.145254 7.777232 8.671997 52.509798 -9.395348 0.541433 -29.321159 3.581773 -4.460258 -0.000001 0.000000 -0.000000 -0.000000 0.000000 0.000000 -59.469904 -2.400203 -11.081152 44.065447 9.131933 5.797452 3.301581 -3.312845 -1.155157 -0.000001 -0.000000 0.000000 -0.000000 0.000000 -0.000000 11.178235 -2.616959 0.313934 4.689162 -4.275027 0.458376 -5.262954 -4.268110 -0.375059 -1.511827 0.520707 -0.622857 -1.511821 0.520700 -0.622855 -0.000000 -0.000000 -0.000000 -1.511903 0.520705 -0.622856 -1.511752 0.520702 -0.622859 0.000001 -0.000000 0.000000 -0.000000 -0.000000 -0.000000 -0.454412 -15.300544 -12.006518 -18.228393 -8.223174 -51.856545 39.164943 -32.971693 20.549092 -35.926361 1.157244 8.781129 11.696551 -6.762084 15.274586 14.993225 22.031458 -14.910854 -0.000000 0.000001 -0.000003 -2.956966 2.438108 -21.742575 10.709200 -5.872748 -43.341013 0.000002 -0.000003 -0.000001 -4.352352 5.223517 -33.482666 -1.142401 -2.326773 -53.080057 0.000000 0.000003 -0.000000 -0.817889 -5.052436 -31.488094 -13.492264 3.347613 -54.110210 -0.000001 -0.000001 0.000000 -0.235528 -13.642193 -33.015174 -20.421586 5.238771 -42.436324 0.000001 -0.000005 0.000001 0.000001 0.000002 -0.000005 0.000001 0.000002 -0.000005 0.000001 0.000001 -0.000005 -0.000000 -0.000001 0.000002 -0.000001 -0.000001 0.000001 -0.000000 -0.000001 0.000002 -0.000002 -0.000000 0.000001 11.840760 -15.732062 15.973842 18.543865 34.629073 44.573821 1.945956 9.658794 -0.851327 -17.361286 10.996611 0.289290 1.014052 5.871548 -10.388460 4.455922 -24.436660 5.342206 -0.000001 -0.000004 0.000001 -9.715621 -6.457213 14.063707 7.017785 2.655595 24.357430 -0.000000 0.000001 0.000000 -9.686199 -7.675912 22.453325 -0.600610 1.774318 37.331400 0.000002 -0.000000 0.000001 -8.791493 -2.999262 24.479140 -9.573427 -1.126472 36.148708 0.000001 0.000002 0.000007 -8.124191 1.907091 26.274254 -15.785093 -2.659901 31.219640 -0.000001 0.000002 -0.000001 0.000001 -0.000001 -0.000001 0.000001 0.000002 0.000000 0.000001 -0.000001 0.000001 -0.000001 0.000002 -0.000001 -0.000001 0.000003 -0.000001 -0.000001 0.000002 -0.000001 -0.000001 0.000003 -0.000001 -0.000001 -0.000000 0.000000 -0.000001 -0.000000 0.000000 -0.000001 -0.000000 0.000000 -0.000001 -0.000000 0.000000 -0.000001 -0.000000 0.000000 -0.000001 -0.000000 0.000000 -0.000001 -0.000000 0.000000 -0.000001 -0.000000 -0.000000 -0.000000 -0.000000 -0.000000 
3.860449 83.731201 107.526917 6.214227 -0.107352 2.166215 0.000000 -0.000000 0.000000 -19.026081 5.374960 10.224838 60.043298 -9.155016 0.597537 -11.651694 2.267228 -7.279508 -0.000001 -0.000000 -0.000000 -0.000002 0.000000 0.000001 -60.329429 -2.817178 -11.487730 52.979158 10.225721 5.807226 -4.815733 -2.559505 -3.188642 -0.000001 -0.000000 -0.000000 0.000000 0.000000 -0.000001 11.602955 -2.345413 0.925914 5.085787 -3.985260 0.565896 -4.902264 -4.052960 -0.190476 -1.949260 0.473521 -0.651512 -1.949284 0.473513 -0.651507 0.000000 -0.000001 0.000000 -1.949193 0.473531 -0.651515 -1.949259 0.473500 -0.651509 -0.000001 0.000000 -0.000000 0.000000 -0.000001 0.000000 -0.378131 -14.842670 -11.907399 -18.957924 -7.048945 -53.075009 39.294372 -31.896587 20.212149 -33.121329 -1.551546 7.731721 12.047900 -6.780765 15.430316 15.320442 21.914834 -15.212233 0.000003 0.000000 -0.000003 -2.713149 2.305178 -22.247299 10.784835 -6.084360 -44.300843 -0.000002 -0.000002 -0.000001 -4.158761 5.156247 -34.152862 -1.171036 -2.348182 -53.873069 -0.000000 0.000001 0.000001 -0.633247 -5.357328 -31.741757 -13.593492 3.493788 -54.849315 0.000002 0.000001 0.000002 -0.147754 -14.104173 -33.244003 -20.549625 5.392335 -42.906777 -0.000000 -0.000003 0.000001 0.000002 0.000000 0.000000 0.000002 0.000000 0.000000 0.000001 0.000001 0.000000 0.000001 -0.000001 0.000001 0.000001 -0.000001 0.000001 0.000001 -0.000001 0.000001 -0.000000 -0.000001 0.000001 12.126065 -16.207127 18.378873 17.429587 32.519705 41.923124 3.755125 12.967105 -2.028437 -17.356971 7.827608 0.647142 1.089959 5.879798 -10.424230 4.536956 -24.427053 5.411567 0.000001 0.000000 0.000001 -9.797885 -6.363785 13.342470 7.083289 2.583800 23.243349 -0.000001 0.000001 -0.000001 -9.750348 -7.472203 21.570528 -0.573082 1.737805 36.432168 0.000001 0.000000 -0.000002 -8.655959 -3.003659 24.337323 -9.601819 -1.116983 35.650224 -0.000001 0.000002 0.000001 -7.807766 1.726813 26.170922 -15.825460 -2.639106 30.840083 0.000003 0.000003 -0.000002 -0.000000 0.000001 -0.000001 -0.000000 -0.000001 -0.000001 -0.000000 0.000001 0.000000 0.000000 -0.000001 -0.000000 0.000000 0.000000 -0.000000 0.000000 -0.000001 -0.000000 0.000000 -0.000000 -0.000000 0.000003 -0.000000 -0.000000 0.000003 -0.000000 -0.000000 0.000003 -0.000000 -0.000000 0.000003 -0.000000 -0.000000 0.000003 -0.000000 -0.000000 0.000003 -0.000000 -0.000000 0.000003 -0.000000 -0.000000 -0.000002 -0.000000 0.000000 0.000000 -0.000000 0.000000 
3.523560 82.677963 111.295456 6.413113 0.044650 1.924337 -0.000000 -0.000000 0.000000 -25.960465 2.934412 10.726692 63.214132 -8.847116 0.982671 10.157765 -0.114007 -10.140904 -0.000002 -0.000000 0.000001 0.000000 0.000000 0.000000 -60.874102 -3.168676 -12.056258 60.103274 11.182963 5.919806 -11.444559 -1.566270 -4.668371 0.000000 0.000000 0.000000 0.000000 0.000000 -0.000001 11.630735 -2.024873 1.191001 5.292783 -3.639384 0.512262 -4.691066 -3.721468 -0.228553 -2.102414 0.365257 -0.507481 -2.102415 0.365256 -0.507480 0.000000 0.000000 0.000000 -2.102416 0.365261 -0.507480 -2.102342 0.365257 -0.507482 -0.000001 0.000001 -0.000000 0.000000 0.000000 -0.000000 -0.280142 -14.288101 -11.802772 -18.509014 -6.635997 -53.527571 39.397487 -30.583316 19.574076 -31.358409 -4.239983 6.807965 12.088908 -6.782850 15.448530 15.358590 21.901048 -15.247340 0.000002 -0.000002 -0.000003 -2.684852 2.289374 -22.306133 10.793432 -6.109334 -44.412871 0.000001 0.000001 -0.000001 -4.136292 5.148129 -34.231061 -1.173937 -2.350251 -53.965622 0.000003 -0.000001 -0.000000 -0.611880 -5.393027 -31.771202 -13.605183 3.511051 -54.935594 0.000003 0.000001 0.000001 -0.137764 -14.158165 -33.270534 -20.564472 5.410430 -42.961627 -0.000000 -0.000003 -0.000000 0.000002 -0.000001 0.000001 0.000002 -0.000001 0.000001 0.000001 -0.000001 0.000001 -0.000001 0.000001 0.000001 -0.000000 0.000001 0.000002 -0.000001 0.000001 0.000001 -0.000000 0.000001 0.000001 12.084628 -15.424369 20.228135 15.399225 29.752809 40.904603 6.583874 16.628044 -3.554861 -18.464879 4.230035 0.655858 1.200934 5.891933 -10.475792 4.654903 -24.412857 5.512686 0.000000 0.000001 -0.000000 -9.880693 -6.204873 12.591921 7.165981 2.501938 22.206002 -0.000001 0.000001 -0.000001 -9.812467 -7.237778 20.675850 -0.548048 1.703557 35.598307 -0.000000 0.000000 0.000000 -8.473833 -2.976036 24.224757 -9.652752 -1.089012 35.239671 0.000001 -0.000001 -0.000000 -7.415673 1.603824 26.086692 -15.890717 -2.597037 30.525727 -0.000002 0.000001 0.000001 -0.000000 -0.000001 -0.000001 -0.000003 -0.000002 0.000001 -0.000000 -0.000001 -0.000000 -0.000000 0.000002 0.000001 -0.000000 0.000003 0.000001 -0.000000 0.000002 0.000001 -0.000000 0.000003 0.000001 0.000000 0.000001 -0.000000 0.000000 0.000001 -0.000000 0.000000 0.000001 -0.000000 0.000000 0.000001 -0.000000 0.000000 0.000001 -0.000000 0.000000 0.000001 -0.000000 0.000000 0.000001 -0.000000 0.000001 0.000000 -0.000000 -0.000000 -0.000000 0.000000 
3.502827 81.403038 114.722687 6.551725 0.104133 1.424830 -0.000000 0.000000 -0.000000 -31.694660 0.580493 10.907102 65.903266 -9.202557 1.263304 28.516171 -2.706609 -12.209720 0.000001 -0.000000 0.000000 -0.000001 0.000000 -0.000000 -60.876301 -2.460084 -11.884206 66.340241 11.562898 5.793095 -17.542274 -1.463958 -4.735013 -0.000000 -0.000000 -0.000000 -0.000000 -0.000000 -0.000002 11.372107 -1.540137 1.710852 5.354673 -3.230674 0.380648 -4.602908 -3.301154 -0.269043 -1.996624 0.249381 -0.351043 -1.996605 0.249380 -0.351045 0.000002 -0.000001 0.000000 -1.996478 0.249379 -0.351044 -1.996763 0.249378 -0.351043 -0.000001 0.000000 -0.000000 0.000002 -0.000001 0.000000 -0.211590 -13.593127 -11.896104 -17.537766 -6.437662 -53.785035 39.532954 -28.716270 18.349923 -29.983608 -7.053126 5.995572 12.088921 -6.782870 15.448518 15.358549 21.901061 -15.247352 -0.000004 0.000003 -0.000002 -2.684840 2.289377 -22.306129 10.793452 -6.109357 -44.412875 0.000000 -0.000005 -0.000003 -4.136295 5.148140 -34.231061 -1.173914 -2.350274 -53.965601 0.000002 0.000001 0.000001 -0.611881 -5.392991 -31.771212 -13.605183 3.511059 -54.935587 0.000001 -0.000001 -0.000001 -0.137748 -14.158170 -33.270545 -20.564482 5.410420 -42.961634 0.000003 -0.000003 0.000001 0.000002 -0.000000 -0.000001 0.000002 -0.000000 -0.000001 0.000001 -0.000000 -0.000001 0.000000 -0.000003 0.000001 0.000001 -0.000003 0.000002 0.000000 -0.000003 0.000001 0.000001 -0.000003 0.000001 11.271264 -13.378902 21.230711 13.099517 26.027141 41.146665 7.492302 20.872800 -4.665624 -17.715665 0.153176 0.381296 1.337914 5.906795 -10.539475 4.800325 -24.394977 5.637445 0.000002 -0.000002 -0.000001 -9.959347 -5.995646 11.833111 7.260296 2.412565 21.251695 -0.000001 0.000002 -0.000001 -9.869207 -6.982753 19.789864 -0.525666 1.671771 34.834002 -0.000000 -0.000000 0.000004 -8.257551 -2.923168 24.137959 -9.720662 -1.046343 34.908622 -0.000001 0.000001 0.000002 -6.970019 1.529569 26.020125 -15.974605 -2.538324 30.270620 -0.000002 0.000002 -0.000006 -0.000001 -0.000000 0.000000 0.000001 -0.000001 0.000000 -0.000001 -0.000001 -0.000000 0.000002 -0.000003 -0.000003 0.000002 -0.000003 -0.000001 0.000002 -0.000003 -0.000003 0.000002 -0.000003 -0.000001 -0.000001 0.000000 -0.000000 -0.000001 0.000000 -0.000000 -0.000001 0.000000 -0.000000 -0.000001 0.000000 -0.000000 -0.000001 0.000000 -0.000000 -0.000001 0.000000 -0.000000 -0.000001 0.000000 -0.000000 0.000001 -0.000000 -0.000000 -0.000000 0.000000 -0.000000 
